<svg width="177.78" height="100" xmlns="http://www.w3.org/2000/svg">
 <title>logoipsum-2</title>

 <g>
  <title>Layer 1</title>
  <path d="m53.73,45.71c0.36,0 0.48,0.13 0.48,0.48l0,7.92l4.07,0c0.35,0 0.48,0.13 0.48,0.48l0,0.7c0,0.35 -0.13,0.48 -0.48,0.48l-5.36,0c-0.35,0 -0.49,-0.13 -0.49,-0.48l0,-9.1c0,-0.35 0.14,-0.48 0.49,-0.48l0.81,0z" fill="#ffffff" id="svg_1"/>
  <path d="m62.31,49.2c0,-2.31 1.46,-3.7 4,-3.7s4,1.39 4,3.7l0,3.08c0,2.31 -1.47,3.7 -4,3.7s-4,-1.39 -4,-3.7l0,-3.08zm6.32,0c0,-1.3 -0.81,-2 -2.27,-2s-2.26,0.71 -2.26,2l0,3.1c0,1.31 0.8,2 2.26,2s2.27,-0.72 2.27,-2l0,-3.1z" fill="#ffffff" id="svg_2"/>
  <path d="m82.22,50.26c0.39,0 0.48,0.13 0.48,0.48l0,1.9a3,3 0 0 1 -1.06,2.36a4.36,4.36 0 0 1 -3,0.94c-2.59,0 -4,-1.39 -4,-3.7l0,-3.1c0,-2.28 1.46,-3.68 4,-3.68c2,0 3.3,0.79 3.85,2.37a0.43,0.43 0 0 1 -0.3,0.62l-0.78,0.27c-0.34,0.12 -0.48,0.05 -0.6,-0.3a2.06,2.06 0 0 0 -2.17,-1.3c-1.47,0 -2.27,0.71 -2.27,2l0,3.18c0,1.31 0.81,2 2.27,2s2.36,-0.67 2.36,-1.65l0,-0.74l-2.17,0c-0.36,0 -0.49,-0.14 -0.49,-0.49l0,-0.68c0,-0.35 0.13,-0.48 0.49,-0.48l3.39,0z" fill="#ffffff" id="svg_3"/>
  <path d="m86.83,49.2c0,-2.31 1.46,-3.7 4,-3.7s4,1.39 4,3.7l0,3.08c0,2.31 -1.47,3.7 -4,3.7s-4,-1.39 -4,-3.7l0,-3.08zm6.31,0c0,-1.3 -0.81,-2 -2.26,-2s-2.27,0.71 -2.27,2l0,3.1c0,1.31 0.81,2 2.27,2s2.26,-0.72 2.26,-2l0,-3.1z" fill="#ffffff" id="svg_4"/>
  <path d="m99.54,46c0,-0.22 0.07,-0.29 0.29,-0.29l0.46,0c0.22,0 0.27,0.07 0.27,0.29l0,9.48c0,0.22 0,0.29 -0.27,0.29l-0.46,0c-0.22,0 -0.29,-0.07 -0.29,-0.29l0,-9.48z" fill="#ffffff" id="svg_5"/>
  <path d="m109.67,45.71a3.14,3.14 0 1 1 0,6.28l-3,0l0,3.49c0,0.22 -0.05,0.29 -0.26,0.29l-0.47,0c-0.21,0 -0.29,-0.07 -0.29,-0.29l0,-9.48c0,-0.22 0.08,-0.29 0.29,-0.29l3.73,0zm-0.09,5.29a2.18,2.18 0 1 0 0,-4.36l-3,0l0,4.36l3,0z" fill="#ffffff" id="svg_6"/>
  <path d="m120.62,45.51a3.61,3.61 0 0 1 3.72,2.18c0.08,0.16 0,0.29 -0.16,0.37l-0.44,0.2c-0.18,0.07 -0.25,0.06 -0.36,-0.13a2.72,2.72 0 0 0 -2.76,-1.64c-1.69,0 -2.61,0.67 -2.61,1.87a1.52,1.52 0 0 0 1.27,1.54a6.79,6.79 0 0 0 1.66,0.32a6.88,6.88 0 0 1 2,0.41a2.25,2.25 0 0 1 1.56,2.37c0,1.87 -1.36,3 -3.86,3a3.61,3.61 0 0 1 -3.83,-2.43a0.27,0.27 0 0 1 0.17,-0.38l0.44,-0.16a0.27,0.27 0 0 1 0.36,0.17a2.86,2.86 0 0 0 2.86,1.8c1.89,0 2.82,-0.66 2.82,-2a1.49,1.49 0 0 0 -1.17,-1.53a7,7 0 0 0 -1.59,-0.28l-1.08,-0.14a9.5,9.5 0 0 1 -1,-0.27a2.63,2.63 0 0 1 -0.89,-0.47a2.44,2.44 0 0 1 -0.8,-1.91c0.07,-1.75 1.38,-2.89 3.69,-2.89z" fill="#ffffff" id="svg_7"/>
  <path d="m129.89,52.35a2.78,2.78 0 0 0 5.55,0l0,-6.35c0,-0.22 0.07,-0.29 0.29,-0.29l0.46,0c0.22,0 0.29,0.07 0.29,0.29l0,6.34c0,2.27 -1.34,3.64 -3.81,3.64s-3.81,-1.37 -3.81,-3.64l0,-6.34c0,-0.22 0.07,-0.29 0.28,-0.29l0.47,0c0.21,0 0.28,0.07 0.28,0.29l0,6.35z" fill="#ffffff" id="svg_8"/>
  <path d="m150.28,45.71c0.22,0 0.29,0.07 0.29,0.29l0,9.48c0,0.22 -0.07,0.29 -0.29,0.29l-0.42,0c-0.21,0 -0.28,-0.07 -0.28,-0.29l0,-5.77a18.55,18.55 0 0 1 0.17,-2.51l-0.06,0a18,18 0 0 1 -1.09,2.21l-2.15,3.79a0.35,0.35 0 0 1 -0.33,0.22l-0.28,0a0.37,0.37 0 0 1 -0.34,-0.22l-2.18,-3.83a16.07,16.07 0 0 1 -1,-2.18l-0.06,0a21.76,21.76 0 0 1 0.16,2.53l0,5.76c0,0.22 -0.07,0.29 -0.29,0.29l-0.39,0c-0.22,0 -0.29,-0.07 -0.29,-0.29l0,-9.48c0,-0.22 0.07,-0.29 0.29,-0.29l0.36,0a0.4,0.4 0 0 1 0.4,0.23l3.5,6.22l3.48,-6.16c0.11,-0.21 0.17,-0.24 0.39,-0.24l0.41,-0.05z" fill="#ffffff" id="svg_9"/>
  <path d="m35.94,53.55l0,7.23a1,1 0 0 1 -2.09,0l0,-7.22a1.77,1.77 0 0 0 1,0.34a1.72,1.72 0 0 0 1.09,-0.35zm8.9,-2.09a1,1 0 0 0 -1,1l0,1.26a1,1 0 1 0 2.09,0l0,-1.21a1,1 0 0 0 -1.09,-1.05zm-13.26,4.83a1.8,1.8 0 0 1 -1,-0.34l0,7.25a1.05,1.05 0 0 0 2.1,0l0,-7.2a1.83,1.83 0 0 1 -1.1,0.29zm10,-7a1,1 0 0 0 -1.05,1l0,5.57a1.05,1.05 0 1 0 2.1,0l0,-5.5a1,1 0 0 0 -1.1,-1.05l0.05,-0.02zm-3.32,2.14a1.83,1.83 0 0 1 -1.05,-0.34l0,7.27a1.05,1.05 0 1 0 2.1,0l0,-7.26a1.77,1.77 0 0 1 -1.1,0.35l0.05,-0.02zm-8.95,5.57l0,-20.31a0.94,0.94 0 0 0 -0.94,-0.93l-0.22,0a0.94,0.94 0 0 0 -0.94,0.93l0,20.31a0.94,0.94 0 0 0 0.94,0.94l0.22,0a0.94,0.94 0 0 0 0.94,-0.94zm2.38,-1.48l-0.22,0a0.94,0.94 0 0 1 -0.94,-0.94l0,-15.47a0.94,0.94 0 0 1 0.94,-0.93l0.22,0a0.94,0.94 0 0 1 0.94,0.93l0,15.49a0.94,0.94 0 0 1 -0.94,0.94l0,-0.02zm3.31,-2.38l-0.23,0a0.93,0.93 0 0 1 -0.93,-0.93l0,-10.7a0.93,0.93 0 0 1 0.93,-0.94l0.23,0a0.94,0.94 0 0 1 0.93,0.94l0,10.7a0.93,0.93 0 0 1 -0.93,0.93zm3.31,-2.45l-0.21,0a0.94,0.94 0 0 1 -0.94,-0.93l0,-5.76a0.94,0.94 0 0 1 0.94,-1l0.22,0a0.94,0.94 0 0 1 0.94,0.94l0,5.8a0.94,0.94 0 0 1 -0.94,0.95l-0.01,0zm3.32,-2.15l-0.22,0a0.94,0.94 0 0 1 -0.94,-0.94l0,-1.49a0.94,0.94 0 0 1 0.94,-0.93l0.22,0a0.94,0.94 0 0 1 0.94,0.93l0,1.49a0.94,0.94 0 0 1 -0.93,0.94l-0.01,0z" fill="#fff" id="svg_10"/>
 </g>
</svg>